<svg xmlns="http://www.w3.org/2000/svg" id="Layer_1" width="536.75" height="80" data-name="Layer 1"><defs><style>.cls-1{fill:#1a5c2f}</style></defs><path d="m27.55.94 3.92 5.78v10.27H15V6.72L18.89.94V.56H0v.38l3.9 5.78v24.34L0 36.82v.38h18.89v-.38L15 31.04V19.9h16.47v11.16l-3.92 5.76v.38h18.89v-.38l-3.87-5.78V6.72L46.44.94V.56H27.55v.38zM325.98 19.9h16.47v11.16l-3.92 5.76v.38h18.89v-.38l-3.87-5.78V6.72l3.87-5.78V.56h-18.89v.38l3.92 5.78v10.27h-16.47V6.72l3.89-5.78V.56h-18.89v.38l3.9 5.78v24.34l-3.9 5.76v.38h18.89v-.38l-3.89-5.78V19.9zM72.45 0C59.13 0 49.92 7.92 49.92 18.95s9.07 18.87 22.53 18.87 22.71-7.94 22.71-18.95S85.77 0 72.45 0Zm0 34.9c-7.23 0-10.67-5.72-10.67-15.96S65.07 2.91 72.45 2.91s10.82 5.76 10.82 16.03S79.68 34.9 72.45 34.9ZM158.27.95V.56h-12.34v.39l4.84 5.78-8.28 20.73-8-20.73 4.99-5.78V.56h-20.44v.39l4.02 5.73 2.19 5.48L118.74 28l-7.57-21.27 4.05-5.78V.56h-20.6v.39l4.53 5.75 12.5 30.51h5.52l9.45-21.57 8.58 21.57h5.77l12.66-30.48 4.64-5.78zM156.5 31.06l-5.41 5.76h.01v.39h13.01v-.39l-4.63-5.76 1.9-4.21h15.94l1.93 4.21-4.69 5.76v.39h21.74v-.39l-4.74-5.78L177.27.56h-12.96v.39l3.74 6.01-11.55 24.11Zm19.61-7.11H162.8l6.77-14.31 6.54 14.31ZM369.92 26.85h15.94l1.93 4.21-4.69 5.76v.39h21.74v-.39l-4.74-5.78L385.79.56h-12.96v.39l3.74 6.01-11.55 24.11-5.41 5.76h.01v.39h13.01v-.39L368 31.07l1.9-4.21Zm8.18-17.22 6.54 14.31h-13.31l6.77-14.31ZM532.01 31.04 517.7.56h-12.96v.39l3.74 6.01-11.55 24.11-5.41 5.76h.01v.39h13.01v-.39l-4.63-5.76 1.9-4.21h15.94l1.93 4.21-4.69 5.76v.39h21.74v-.39l-4.74-5.78Zm-28.77-7.09 6.77-14.31 6.54 14.31h-13.31ZM217.21 18.28h-1.76V21H217c.51 0 1.43-.02 2-.07l8.83 16.27h15.35l.03-.35-5.14-4.84-7.93-9.85c-2.39-.19-5.29-.61-7.32-1.12v-.28c7.64-.71 14.79-3.14 14.79-10.68 0-5.6-5.93-9.51-17.77-9.51h-21.31v.39l3.9 5.78v24.32l-3.9 5.78v.39h18.92v-.39l-3.92-5.78V3.46h3.21c6.31 0 8.99 1.67 8.99 7.25 0 4.89-2.27 7.57-8.51 7.57ZM266.2.56h-19.22v.39l3.9 5.78v24.29l-3.9 5.81v.38h19.07c15.55 0 25.43-5.78 25.43-18.36S281.42.56 266.2.56Zm.32 33.74h-4.55V3.46h4.63c8.81 0 12.99 3.94 12.99 15.69 0 11.14-3.77 15.15-13.06 15.15ZM437.53.9l3.59 5.81V24.3L420.43.56h-14.14v.38l4.44 3.96v26.16l-3.44 5.81v.33h9.98v-.33l-3.64-5.81V8.04l26.22 30.03 4.18-1.85V6.71L447.72.9V.56h-10.19V.9zM491.79.56H481.6V.9l3.59 5.81V24.3L464.49.56h-14.13v.38l4.44 3.96v26.16l-3.45 5.81v.33h9.99v-.33l-3.64-5.81V8.04l26.22 30.03 4.18-1.85V6.71L491.79.9V.56zM121.91 67.47c0-3.17-2.46-5.53-5.83-5.53h-6.82V79.7h2.94v-6.8h2.94l3.81 6.8h3.4l-4.26-7.21c2.31-.79 3.83-2.69 3.83-5.02Zm-9.72 2.74v-5.48h3.83c1.73 0 2.94 1.17 2.94 2.77s-1.22 2.72-2.94 2.72h-3.83ZM130.59 71.96h7.81v-2.72h-7.81v-4.51h8.77v-2.79h-11.72V79.7h11.98v-2.8h-9.03v-4.94zM149.79 61.94l-6.67 17.76h2.99l1.45-3.98h7.18l1.45 3.98h3.09l-6.65-17.76h-2.84ZM148.52 73l2.64-7.28 2.61 7.28h-5.25ZM166.65 61.94h-2.94V79.7h11.37v-2.82h-8.43V61.94zM190.81 71.96h7.81v-2.72h-7.81v-4.51h8.77v-2.79h-11.72V79.7h11.98v-2.8h-9.03v-4.94zM207.65 66.66c0-1.34 1.04-2.36 2.94-2.36s3.04 1.22 3.15 2.94h2.94c-.15-3.15-2.46-5.61-6.09-5.61s-5.89 2.16-5.89 4.97c0 6.32 9.29 4.47 9.29 8.4 0 1.29-1.04 2.33-3.17 2.33s-3.4-1.27-3.58-3.1h-2.94c.15 3.32 2.56 5.76 6.49 5.76s6.14-2.18 6.14-5.07c0-6.39-9.29-4.41-9.29-8.27ZM220.4 64.75h5.28V79.7h2.94V64.75h5.28v-2.81h-13.5v2.81zM241.91 61.94l-6.67 17.76h2.99l1.45-3.98h7.18l1.45 3.98h3.1l-6.65-17.76h-2.84ZM240.64 73l2.64-7.28 2.61 7.28h-5.25ZM252.75 64.75h5.28V79.7h2.94V64.75h5.28v-2.81h-13.5v2.81zM274.05 71.96h7.81v-2.72h-7.81v-4.51h8.78v-2.79h-11.72V79.7h11.97v-2.8h-9.03v-4.94zM299.7 66.66c0-1.34 1.04-2.36 2.94-2.36s3.04 1.22 3.15 2.94h2.94c-.15-3.15-2.46-5.61-6.09-5.61s-5.89 2.16-5.89 4.97c0 6.32 9.29 4.47 9.29 8.4 0 1.29-1.04 2.33-3.17 2.33s-3.4-1.27-3.58-3.1h-2.94c.15 3.32 2.56 5.76 6.49 5.76s6.14-2.18 6.14-5.07c0-6.39-9.29-4.41-9.29-8.27ZM317.46 71.96h7.81v-2.72h-7.81v-4.51h8.78v-2.79h-11.72V79.7h11.97v-2.8h-9.03v-4.94zM344.65 67.47c0-3.17-2.46-5.53-5.83-5.53H332V79.7h2.94v-6.8h2.94l3.81 6.8h3.4l-4.26-7.21c2.31-.79 3.83-2.69 3.83-5.02Zm-9.71 2.74v-5.48h3.83c1.73 0 2.94 1.17 2.94 2.77s-1.22 2.72-2.94 2.72h-3.83ZM356.58 75.71l-4.82-13.77h-3.12l6.34 17.76H358l6.39-17.76h-2.99l-4.82 13.77zM369.05 61.94h2.94V79.7h-2.94zM385.96 77.18c-2.99 0-5.61-2.64-5.61-6.37s2.61-6.37 5.61-6.37c2.59 0 4.21 1.8 4.77 3.65h3.02c-.79-3.35-3.65-6.47-7.79-6.47-4.62 0-8.55 4.01-8.55 9.18s3.93 9.18 8.55 9.18c4.26 0 7.13-3.15 7.92-6.47h-3.02c-.63 1.85-2.28 3.65-4.9 3.65ZM402.12 71.96h7.81v-2.72h-7.81v-4.51h8.78v-2.79h-11.73V79.7h11.98v-2.8h-9.03v-4.94zM418.96 66.66c0-1.34 1.04-2.36 2.94-2.36s3.04 1.22 3.15 2.94h2.94c-.15-3.15-2.46-5.61-6.09-5.61s-5.89 2.16-5.89 4.97c0 6.32 9.29 4.47 9.29 8.4 0 1.29-1.04 2.33-3.17 2.33s-3.4-1.27-3.58-3.1h-2.94c.15 3.32 2.56 5.76 6.49 5.76s6.14-2.18 6.14-5.07c0-6.39-9.29-4.41-9.29-8.27Z" class="cls-1"/></svg>